<?xml version="1.0" encoding="utf-8"?>
<!-- Generator: Adobe Illustrator 26.1.0, SVG Export Plug-In . SVG Version: 6.00 Build 0)  -->
<svg version="1.1" id="レイヤー_1" xmlns="http://www.w3.org/2000/svg" xmlns:xlink="http://www.w3.org/1999/xlink" x="0px"
	 y="0px" viewBox="0 0 198 200" style="enable-background:new 0 0 198 200;" xml:space="preserve">
<style type="text/css">
	.st0{fill:#99AAB5;}
	.st1{fill:#FFCC4D;}
	.st2{fill:#F4900C;}
	.st3{fill:#662113;}
	.st4{fill:#E1E8ED;}
</style>
<path class="st0" d="M12.7,105.3l12.7-18.9l17,17L65,92.1l17,17l22.6-34l22.6,17l17-5.7l11.3,17l17-17l11.3,22.6l-11.3,39.6
	L110.3,177L48,165.7l-34-34L12.7,105.3z"/>
<path class="st1" d="M166.7,79.1c0.1-1.6,0.2-3.2,0.2-4.9c0-33.6-24.5-61.5-56.6-66.9c6.7-1.5,11.5-2.9,5.6-5.8
	c-6.3-3.2-12.6,0.7-17,4.8h0c-4.4-4.1-10.7-7.9-17-4.8c-5.9,2.9-1.1,4.3,5.6,5.8c-32.1,5.4-56.6,33.3-56.6,66.9
	c0,1.7,0.1,3.3,0.2,4.9c-2.7,37.4-35.7,92.2,67.7,92.2S169.4,116.5,166.7,79.1z"/>
<path class="st2" d="M116,75.1c0,9.4-7.6,11.3-17,11.3s-17-1.9-17-11.3s7.6-17,17-17S116,65.7,116,75.1z"/>
<circle class="st3" cx="62.2" cy="60.9" r="8.5"/>
<circle class="st3" cx="135.8" cy="60.9" r="8.5"/>
<path class="st4" d="M172.6,137.4l-17-5.7l-22.6,34l-17-28.3l-11.3,11.3L82,137.4L65,160l-17-34l-17,11.3l-18.6-44
	c-2.6,7.6-4,15.7-4,24.1c0,45.3,40.6,82.1,90.6,82.1s90.6-36.7,90.6-82.1c0-7-1.1-13.8-2.9-20.4L172.6,137.4z"/>
</svg>
